<svg width="824" height="24" viewBox="0 0 824 24" fill="none" xmlns="http://www.w3.org/2000/svg">
<g clip-path="url(#clip0_13_42423)">
<path d="M370 15.8331L365.885 17.9965L366.671 13.4145L363.338 10.1698L367.938 9.50314L369.995 5.33447L372.053 9.50314L376.653 10.1698L373.319 13.4145L374.105 17.9965L370 15.8331Z" fill="#E3AD54" stroke="#E3AD54" stroke-width="1.75" stroke-linecap="round" stroke-linejoin="round"/>
</g>
<g clip-path="url(#clip1_13_42423)">
<path d="M398 15.8331L393.885 17.9965L394.671 13.4145L391.338 10.1698L395.938 9.50314L397.995 5.33447L400.053 9.50314L404.653 10.1698L401.319 13.4145L402.105 17.9965L398 15.8331Z" fill="#E3AD54" stroke="#E3AD54" stroke-width="1.75" stroke-linecap="round" stroke-linejoin="round"/>
</g>
<g clip-path="url(#clip2_13_42423)">
<path d="M426 15.8331L421.885 17.9965L422.671 13.4145L419.338 10.1698L423.938 9.50314L425.995 5.33447L428.053 9.50314L432.653 10.1698L429.319 13.4145L430.105 17.9965L426 15.8331Z" fill="#E3AD54" stroke="#E3AD54" stroke-width="1.75" stroke-linecap="round" stroke-linejoin="round"/>
</g>
<g clip-path="url(#clip3_13_42423)">
<path d="M454 15.8331L449.885 17.9965L450.671 13.4145L447.338 10.1698L451.938 9.50314L453.995 5.33447L456.053 9.50314L460.653 10.1698L457.319 13.4145L458.105 17.9965L454 15.8331Z" fill="#E3AD54" stroke="#E3AD54" stroke-width="1.75" stroke-linecap="round" stroke-linejoin="round"/>
</g>
<defs>
<clipPath id="clip0_13_42423">
<rect width="16" height="16" fill="white" transform="translate(362 4)"/>
</clipPath>
<clipPath id="clip1_13_42423">
<rect width="16" height="16" fill="white" transform="translate(390 4)"/>
</clipPath>
<clipPath id="clip2_13_42423">
<rect width="16" height="16" fill="white" transform="translate(418 4)"/>
</clipPath>
<clipPath id="clip3_13_42423">
<rect width="16" height="16" fill="white" transform="translate(446 4)"/>
</clipPath>
</defs>
</svg>
