<svg width="154" height="44" viewBox="0 0 154 44" fill="none" xmlns="http://www.w3.org/2000/svg">
<path d="M148.296 44H5.7037C2.50963 44 0 41.58 0 38.5V5.5C0 2.42 2.50963 0 5.7037 0H148.296C151.49 0 154 2.42 154 5.5V38.5C154 41.58 151.49 44 148.296 44Z" fill="black"/>
<path d="M148.296 0.88C150.92 0.88 153.087 2.97 153.087 5.5V38.5C153.087 41.03 150.92 43.12 148.296 43.12H5.7037C3.08 43.12 0.912593 41.03 0.912593 38.5V5.5C0.912593 2.97 3.08 0.88 5.7037 0.88H148.296ZM148.296 0H5.7037C2.50963 0 0 2.53 0 5.5V38.5C0 41.58 2.50963 44 5.7037 44H148.296C151.49 44 154 41.58 154 38.5V5.5C154 2.53 151.49 0 148.296 0Z" fill="#A6A6A6"/>
<path d="M54.071 11.2198C54.071 12.0998 53.8429 12.8698 53.2725 13.4198C52.588 14.0798 51.7895 14.4098 50.7629 14.4098C49.7362 14.4098 48.9377 14.0798 48.2532 13.4198C47.5688 12.7598 47.2266 11.9898 47.2266 10.9998C47.2266 10.0098 47.5688 9.23984 48.2532 8.57984C48.9377 7.91984 49.7362 7.58984 50.7629 7.58984C51.2192 7.58984 51.6755 7.69984 52.1317 7.91984C52.588 8.13984 52.9303 8.35984 53.1584 8.68984L52.588 9.23984C52.1317 8.68984 51.5614 8.46984 50.7629 8.46984C50.0784 8.46984 49.394 8.68984 48.9377 9.23984C48.3673 9.67984 48.1392 10.3398 48.1392 11.1098C48.1392 11.8798 48.3673 12.5398 48.9377 12.9798C49.508 13.4198 50.0784 13.7498 50.7629 13.7498C51.5614 13.7498 52.1317 13.5298 52.7021 12.9798C53.0443 12.6498 53.2725 12.2098 53.2725 11.6598H50.7629V10.7798H54.071V11.2198ZM59.3184 8.46984H56.2384V10.5598H59.0903V11.3298H56.2384V13.4198H59.3184V14.2998H55.3258V7.69984H59.3184V8.46984ZM63.0829 14.2998H62.1703V8.46984H60.231V7.69984H65.0221V8.46984H63.0829V14.2998ZM68.3303 14.2998V7.69984H69.2429V14.2998H68.3303ZM73.1214 14.2998H72.2088V8.46984H70.2695V7.69984H74.9466V8.46984H73.0073V14.2998H73.1214ZM83.9584 13.4198C83.274 14.0798 82.4755 14.4098 81.4488 14.4098C80.4221 14.4098 79.6236 14.0798 78.9391 13.4198C78.2547 12.7598 77.9125 11.9898 77.9125 10.9998C77.9125 10.0098 78.2547 9.23984 78.9391 8.57984C79.6236 7.91984 80.4221 7.58984 81.4488 7.58984C82.4755 7.58984 83.274 7.91984 83.9584 8.57984C84.6429 9.23984 84.9851 10.0098 84.9851 10.9998C84.9851 11.9898 84.6429 12.7598 83.9584 13.4198ZM79.6236 12.8698C80.0799 13.3098 80.7643 13.6398 81.4488 13.6398C82.1332 13.6398 82.8177 13.4198 83.274 12.8698C83.7303 12.4298 84.0725 11.7698 84.0725 10.9998C84.0725 10.2298 83.8443 9.56984 83.274 9.12984C82.8177 8.68984 82.1332 8.35984 81.4488 8.35984C80.7643 8.35984 80.0799 8.57984 79.6236 9.12984C79.1673 9.56984 78.8251 10.2298 78.8251 10.9998C78.8251 11.7698 79.0532 12.4298 79.6236 12.8698ZM86.2399 14.2998V7.69984H87.2666L90.5747 12.8698V7.69984H91.4873V14.2998H90.5747L87.0384 8.90984V14.2998H86.2399Z" fill="white" stroke="white" stroke-width="0.228333" stroke-miterlimit="10"/>
<path d="M77.6843 23.9796C74.9465 23.9796 72.7791 25.9596 72.7791 28.7096C72.7791 31.3496 74.9465 33.4396 77.6843 33.4396C80.4221 33.4396 82.5895 31.4596 82.5895 28.7096C82.5895 25.8496 80.4221 23.9796 77.6843 23.9796ZM77.6843 31.4596C76.2013 31.4596 74.9465 30.2496 74.9465 28.5996C74.9465 26.9496 76.2013 25.7396 77.6843 25.7396C79.1672 25.7396 80.4221 26.8396 80.4221 28.5996C80.4221 30.2496 79.1672 31.4596 77.6843 31.4596ZM67.0754 23.9796C64.3376 23.9796 62.1702 25.9596 62.1702 28.7096C62.1702 31.3496 64.3376 33.4396 67.0754 33.4396C69.8132 33.4396 71.9806 31.4596 71.9806 28.7096C71.9806 25.8496 69.8132 23.9796 67.0754 23.9796ZM67.0754 31.4596C65.5924 31.4596 64.3376 30.2496 64.3376 28.5996C64.3376 26.9496 65.5924 25.7396 67.0754 25.7396C68.5583 25.7396 69.8132 26.8396 69.8132 28.5996C69.8132 30.2496 68.5583 31.4596 67.0754 31.4596ZM54.4132 25.4096V27.3896H59.3184C59.2043 28.4896 58.748 29.3696 58.1776 29.9196C57.4932 30.5796 56.3524 31.3496 54.4132 31.3496C51.3332 31.3496 49.0517 29.0396 49.0517 26.0696C49.0517 23.0996 51.4472 20.7896 54.4132 20.7896C56.0102 20.7896 57.265 21.4496 58.1776 22.2196L59.6606 20.7896C58.4058 19.6896 56.8087 18.8096 54.5272 18.8096C50.4206 18.8096 46.8843 22.1096 46.8843 26.0696C46.8843 30.0296 50.4206 33.3296 54.5272 33.3296C56.8087 33.3296 58.4058 32.6696 59.7746 31.2396C61.1435 29.9196 61.5998 28.0496 61.5998 26.6196C61.5998 26.1796 61.5998 25.7396 61.4858 25.4096H54.4132ZM106.203 26.9496C105.746 25.8496 104.606 23.9796 102.096 23.9796C99.5865 23.9796 97.5332 25.8496 97.5332 28.7096C97.5332 31.3496 99.5865 33.4396 102.324 33.4396C104.492 33.4396 105.861 32.1196 106.317 31.3496L104.72 30.2496C104.149 31.0196 103.465 31.5696 102.324 31.5696C101.184 31.5696 100.499 31.1296 99.9287 30.1396L106.431 27.4996L106.203 26.9496ZM99.5865 28.4896C99.5865 26.7296 101.069 25.7396 102.096 25.7396C102.895 25.7396 103.693 26.1796 103.921 26.7296L99.5865 28.4896ZM94.225 32.9996H96.3924V19.2496H94.225V32.9996ZM90.8028 24.9696C90.2324 24.4196 89.3198 23.8696 88.1791 23.8696C85.7835 23.8696 83.502 25.9596 83.502 28.5996C83.502 31.2396 85.6695 33.2196 88.1791 33.2196C89.3198 33.2196 90.2324 32.6696 90.6887 32.1196H90.8028V32.7796C90.8028 34.5396 89.7761 35.5296 88.1791 35.5296C86.9243 35.5296 86.0117 34.6496 85.7835 33.8796L83.9583 34.6496C84.5287 35.8596 85.8976 37.3996 88.2932 37.3996C90.8028 37.3996 92.8561 35.9696 92.8561 32.5596V24.1996H90.8028V24.9696ZM88.2932 31.4596C86.8102 31.4596 85.5554 30.2496 85.5554 28.5996C85.5554 26.9496 86.8102 25.7396 88.2932 25.7396C89.7761 25.7396 90.9169 26.9496 90.9169 28.5996C90.9169 30.2496 89.7761 31.4596 88.2932 31.4596ZM116.127 19.2496H110.994V32.9996H113.161V27.8296H116.127C118.523 27.8296 120.804 26.1796 120.804 23.5396C120.804 20.8996 118.523 19.2496 116.127 19.2496ZM116.241 25.8496H113.161V21.1196H116.241C117.838 21.1196 118.751 22.4396 118.751 23.4296C118.637 24.6396 117.724 25.8496 116.241 25.8496ZM129.36 23.8696C127.763 23.8696 126.166 24.5296 125.595 25.9596L127.535 26.7296C127.991 25.9596 128.675 25.7396 129.474 25.7396C130.615 25.7396 131.641 26.3996 131.755 27.4996V27.6096C131.413 27.3896 130.501 27.0596 129.588 27.0596C127.535 27.0596 125.481 28.1596 125.481 30.1396C125.481 32.0096 127.192 33.2196 129.018 33.2196C130.501 33.2196 131.185 32.5596 131.755 31.8996H131.869V32.9996H133.923V27.7196C133.695 25.2996 131.755 23.8696 129.36 23.8696ZM129.132 31.4596C128.447 31.4596 127.421 31.1296 127.421 30.2496C127.421 29.1496 128.675 28.8196 129.702 28.8196C130.615 28.8196 131.071 29.0396 131.641 29.2596C131.413 30.5796 130.272 31.4596 129.132 31.4596ZM141.109 24.1996L138.714 30.1396H138.6L136.09 24.1996H133.809L137.573 32.5596L135.406 37.1796H137.573L143.391 24.1996H141.109ZM121.945 32.9996H124.112V19.2496H121.945V32.9996Z" fill="white"/>
<path d="M11.864 8.25C11.5218 8.58 11.4077 9.13 11.4077 9.79V34.1C11.4077 34.76 11.6359 35.31 11.9781 35.64L12.0922 35.75L26.2373 22.11V21.89L11.864 8.25Z" fill="url(#paint0_linear_13_41870)"/>
<path d="M30.8001 26.7309L26.123 22.2209V21.8909L30.8001 17.3809L30.9142 17.4909L36.5038 20.5709C38.1008 21.4509 38.1008 22.8809 36.5038 23.7609L30.8001 26.7309Z" fill="url(#paint1_linear_13_41870)"/>
<path d="M30.9141 26.62L26.123 22L11.8638 35.75C12.4341 36.3 13.2327 36.3 14.2593 35.86L30.9141 26.62Z" fill="url(#paint2_linear_13_41870)"/>
<path d="M30.9141 17.3803L14.2593 8.25027C13.2327 7.70027 12.4341 7.81027 11.8638 8.36027L26.123 22.0003L30.9141 17.3803Z" fill="url(#paint3_linear_13_41870)"/>
<path opacity="0.2" d="M30.8001 26.5107L14.2593 35.5307C13.3467 36.0807 12.5482 35.9707 11.9778 35.5307L11.8638 35.6407L11.9778 35.7507C12.5482 36.1907 13.3467 36.3007 14.2593 35.7507L30.8001 26.5107Z" fill="black"/>
<path opacity="0.12" d="M11.864 35.53C11.5218 35.2 11.4077 34.65 11.4077 33.99V34.1C11.4077 34.76 11.6359 35.31 11.9781 35.64V35.53H11.864ZM36.504 23.43L30.8003 26.51L30.9144 26.62L36.504 23.54C37.3025 23.1 37.6447 22.55 37.6447 22C37.6447 22.55 37.1885 22.99 36.504 23.43Z" fill="black"/>
<path opacity="0.25" d="M14.2596 8.36039L36.504 20.5704C37.1885 21.0104 37.6447 21.4504 37.6447 22.0004C37.6447 21.4504 37.3025 20.9004 36.504 20.4604L14.2596 8.2504C12.6625 7.3704 11.4077 8.03039 11.4077 9.79039V9.90039C11.4077 8.2504 12.6625 7.4804 14.2596 8.36039Z" fill="white"/>
<defs>
<linearGradient id="paint0_linear_13_41870" x1="24.8685" y1="9.581" x2="6.41932" y2="28.7123" gradientUnits="userSpaceOnUse">
<stop stop-color="#00A0FF"/>
<stop offset="0.007" stop-color="#00A1FF"/>
<stop offset="0.26" stop-color="#00BEFF"/>
<stop offset="0.512" stop-color="#00D2FF"/>
<stop offset="0.76" stop-color="#00DFFF"/>
<stop offset="1" stop-color="#00E3FF"/>
</linearGradient>
<linearGradient id="paint1_linear_13_41870" x1="38.5959" y1="22.002" x2="10.9934" y2="22.002" gradientUnits="userSpaceOnUse">
<stop stop-color="#FFE000"/>
<stop offset="0.409" stop-color="#FFBD00"/>
<stop offset="0.775" stop-color="#FFA500"/>
<stop offset="1" stop-color="#FF9C00"/>
</linearGradient>
<linearGradient id="paint2_linear_13_41870" x1="28.3212" y1="24.5256" x2="3.30398" y2="50.4694" gradientUnits="userSpaceOnUse">
<stop stop-color="#FF3A44"/>
<stop offset="1" stop-color="#C31162"/>
</linearGradient>
<linearGradient id="paint3_linear_13_41870" x1="8.32405" y1="0.19387" x2="19.496" y2="11.7796" gradientUnits="userSpaceOnUse">
<stop stop-color="#32A071"/>
<stop offset="0.069" stop-color="#2DA771"/>
<stop offset="0.476" stop-color="#15CF74"/>
<stop offset="0.801" stop-color="#06E775"/>
<stop offset="1" stop-color="#00F076"/>
</linearGradient>
</defs>
</svg>
