<svg width="132" height="44" viewBox="0 0 132 44" fill="none" xmlns="http://www.w3.org/2000/svg">
<path d="M121.488 0.000143H10.5176C10.1131 0.000143 9.71344 0.000143 9.31001 0.002343C8.9723 0.004543 8.63728 0.010934 8.29632 0.016313C7.55562 0.025005 6.81665 0.0899869 6.08585 0.210694C5.35607 0.334029 4.64915 0.56655 3.98901 0.900394C3.32967 1.23706 2.72721 1.67453 2.2035 2.19692C1.67703 2.71784 1.23818 3.31996 0.903815 3.98012C0.568532 4.63896 0.336045 5.34498 0.214385 6.07377C0.0915684 6.80165 0.0254795 7.53792 0.0167118 8.27597C0.00647513 8.61323 0.0053941 8.95161 0 9.28892V34.7146C0.0053941 35.0562 0.00647513 35.387 0.0167118 35.7287C0.0254822 36.4667 0.0915711 37.2029 0.214385 37.9308C0.335709 38.66 0.56821 39.3664 0.903815 40.0255C1.23802 40.6835 1.67694 41.2832 2.2035 41.8012C2.72523 42.326 3.32807 42.7637 3.98901 43.0978C4.64915 43.4325 5.35599 43.6665 6.08585 43.7917C6.81677 43.9114 7.55566 43.9764 8.29632 43.9862C8.63728 43.9937 8.9723 43.9979 9.31001 43.9979C9.71343 44.0001 10.1131 44.0001 10.5176 44.0001H121.488C121.885 44.0001 122.288 44.0001 122.684 43.9979C123.02 43.9979 123.365 43.9937 123.701 43.9862C124.44 43.977 125.178 43.9119 125.907 43.7917C126.639 43.6656 127.349 43.4317 128.012 43.0978C128.672 42.7635 129.275 42.3258 129.796 41.8012C130.321 41.2812 130.761 40.6819 131.099 40.0255C131.433 39.3659 131.663 38.6596 131.782 37.9308C131.905 37.2028 131.974 36.4668 131.987 35.7287C131.991 35.387 131.991 35.0562 131.991 34.7146C132 34.315 132 33.9175 132 33.5114V10.4899C132 10.0871 132 9.68745 131.991 9.28892C131.991 8.95161 131.991 8.61323 131.987 8.27593C131.974 7.53781 131.905 6.8017 131.782 6.07373C131.662 5.34535 131.432 4.6394 131.099 3.98007C130.419 2.65686 129.339 1.57977 128.012 0.900295C127.349 0.567267 126.639 0.334807 125.907 0.210595C125.178 0.0893561 124.44 0.0243515 123.701 0.016159C123.365 0.010791 123.02 0.004345 122.684 0.0022C122.288 0 121.885 0.000143 121.488 0.000143Z" fill="#A6A6A6"/>
<path d="M9.31527 43.0379C8.97919 43.0379 8.65122 43.0336 8.31776 43.0261C7.62699 43.0171 6.93783 42.9572 6.25594 42.8467C5.62011 42.7375 5.00416 42.5344 4.42841 42.244C3.85794 41.9561 3.33762 41.5785 2.88739 41.1258C2.43065 40.6784 2.05039 40.1595 1.76168 39.5896C1.46979 39.0161 1.26779 38.4013 1.1627 37.7667C1.04922 37.0848 0.987825 36.3953 0.97904 35.7042C0.972046 35.4722 0.962891 34.6998 0.962891 34.6998V9.28916C0.962891 9.28916 0.972642 8.52861 0.979095 8.30517C0.987507 7.61512 1.04855 6.92671 1.16169 6.24589C1.26697 5.60957 1.46913 4.99301 1.76117 4.41758C2.04882 3.84813 2.42697 3.32884 2.88096 2.87984C3.33444 2.42657 3.85642 2.04706 4.42787 1.75512C5.00229 1.46569 5.61708 1.264 6.25162 1.15679C6.93576 1.04521 7.62731 0.984886 8.32048 0.976322L9.31581 0.962891H122.679L123.686 0.976861C124.373 0.985 125.058 1.04479 125.736 1.15571C126.377 1.26426 126.998 1.46737 127.579 1.75834C128.724 2.34668 129.655 3.27747 130.243 4.42027C130.53 4.99173 130.729 5.60325 130.833 6.23408C130.948 6.92048 131.012 7.6143 131.025 8.31001C131.028 8.62153 131.028 8.95615 131.028 9.28916C131.037 9.70166 131.037 10.0943 131.037 10.4901V33.5117C131.037 33.9113 131.037 34.3013 131.028 34.6944C131.028 35.0521 131.028 35.3798 131.024 35.7171C131.011 36.4004 130.948 37.0818 130.835 37.7559C130.732 38.3951 130.532 39.0147 130.24 39.5929C129.949 40.1566 129.571 40.671 129.119 41.1172C128.669 41.5723 128.148 41.9521 127.576 42.2419C126.996 42.5345 126.376 42.7384 125.736 42.8467C125.054 42.9578 124.365 43.0177 123.674 43.0261C123.351 43.0336 123.012 43.0379 122.684 43.0379L121.488 43.0401L9.31527 43.0379Z" fill="black"/>
<path d="M27.3223 22.3315C27.3341 21.4134 27.5787 20.5132 28.0332 19.7146C28.4877 18.9161 29.1373 18.2452 29.9217 17.7643C29.4234 17.0546 28.7661 16.4706 28.0018 16.0585C27.2376 15.6465 26.3875 15.4179 25.5191 15.3908C23.6668 15.1969 21.871 16.4961 20.9271 16.4961C19.9649 16.4961 18.5116 15.4101 16.9466 15.4422C15.9343 15.4748 14.9478 15.7683 14.0831 16.2942C13.2184 16.8201 12.5051 17.5603 12.0126 18.4428C9.87921 22.1261 11.4705 27.5393 13.5141 30.5165C14.5366 31.9744 15.7315 33.6029 17.2951 33.5452C18.8251 33.4819 19.3966 32.5722 21.2435 32.5722C23.0732 32.5722 23.6094 33.5452 25.2047 33.5084C26.8465 33.4819 27.8809 32.0441 28.8675 30.5724C29.6021 29.5336 30.1674 28.3855 30.5424 27.1706C29.5886 26.7683 28.7746 26.0949 28.202 25.2344C27.6293 24.3739 27.3234 23.3643 27.3223 22.3315Z" fill="white"/>
<path d="M24.3093 13.4325C25.2045 12.3608 25.6455 10.9834 25.5387 9.59277C24.171 9.73602 22.9077 10.3878 22.0004 11.4183C21.5568 11.9218 21.2171 12.5075 21.0006 13.1419C20.7841 13.7763 20.6952 14.4471 20.7388 15.1159C21.4229 15.1229 22.0996 14.975 22.7181 14.6834C23.3366 14.3919 23.8806 13.9641 24.3093 13.4325Z" fill="white"/>
<path d="M46.6634 29.8534H41.442L40.1881 33.5455H37.9766L42.9221 19.8857H45.2199L50.1655 33.5455H47.9162L46.6634 29.8534ZM41.9828 28.1497H46.1216L44.0813 22.1577H44.0242L41.9828 28.1497Z" fill="white"/>
<path d="M60.846 28.5666C60.846 31.6614 59.1849 33.6498 56.6782 33.6498C56.0432 33.6829 55.4117 33.5371 54.8559 33.2289C54.3002 32.9207 53.8427 32.4628 53.5359 31.9074H53.4885V36.8402H51.4385V23.5865H53.4228V25.243H53.4605C53.7814 24.6902 54.2466 24.2346 54.8066 23.9246C55.3666 23.6146 56.0003 23.4617 56.6405 23.4823C59.1752 23.4823 60.846 25.4804 60.846 28.5666ZM58.7389 28.5666C58.7389 26.5503 57.694 25.2247 56.0997 25.2247C54.5334 25.2247 53.4799 26.5782 53.4799 28.5666C53.4799 30.5732 54.5334 31.9171 56.0997 31.9171C57.694 31.9171 58.7389 30.6012 58.7389 28.5666Z" fill="white"/>
<path d="M71.8382 28.5666C71.8382 31.6614 70.1771 33.6498 67.6704 33.6498C67.0354 33.6829 66.4039 33.537 65.8481 33.2289C65.2924 32.9207 64.8349 32.4628 64.5281 31.9074H64.4806V36.8402H62.4307V23.5865H64.4149V25.2429H64.4526C64.7736 24.6902 65.2388 24.2346 65.7987 23.9246C66.3587 23.6146 66.9925 23.4617 67.6326 23.4823C70.1674 23.4823 71.8382 25.4803 71.8382 28.5666ZM69.7311 28.5666C69.7311 26.5503 68.6862 25.2247 67.0919 25.2247C65.5256 25.2247 64.472 26.5782 64.472 28.5666C64.472 30.5732 65.5256 31.9171 67.0919 31.9171C68.6862 31.9171 69.7311 30.6012 69.7311 28.5666Z" fill="white"/>
<path d="M79.1034 29.7398C79.2553 31.0944 80.5749 31.9838 82.3782 31.9838C84.106 31.9838 85.3492 31.0944 85.3492 29.873C85.3492 28.8127 84.5994 28.1779 82.8241 27.7428L81.0489 27.3163C78.5335 26.7105 77.3658 25.5374 77.3658 23.6339C77.3658 21.2771 79.4255 19.6582 82.3502 19.6582C85.2447 19.6582 87.2289 21.2771 87.2957 23.6339H85.2263C85.1025 22.2707 83.9724 21.4479 82.321 21.4479C80.6696 21.4479 79.5396 22.2804 79.5396 23.4921C79.5396 24.4578 80.2614 25.0261 82.027 25.4611L83.5362 25.8306C86.3467 26.4934 87.5144 27.6192 87.5144 29.6173C87.5144 32.1728 85.473 33.7734 82.2262 33.7734C79.1884 33.7734 77.1374 32.2104 77.0049 29.7397L79.1034 29.7398Z" fill="white"/>
<path d="M91.9385 21.2295V23.5863H93.8377V25.2052H91.9385V30.6955C91.9385 31.5484 92.3188 31.9459 93.1537 31.9459C93.3791 31.942 93.6042 31.9262 93.828 31.8986V33.5078C93.4527 33.5777 93.0711 33.6094 92.6894 33.6023C90.6674 33.6023 89.8789 32.845 89.8789 30.9135V25.2052H88.4268V23.5863H89.8788V21.2295H91.9385Z" fill="white"/>
<path d="M94.9375 28.5664C94.9375 25.4329 96.7882 23.4639 99.6741 23.4639C102.57 23.4639 104.412 25.4329 104.412 28.5664C104.412 31.7085 102.579 33.6689 99.6741 33.6689C96.7698 33.6689 94.9375 31.7085 94.9375 28.5664ZM102.323 28.5664C102.323 26.4169 101.335 25.1482 99.6741 25.1482C98.013 25.1482 97.0262 26.4266 97.0262 28.5664C97.0262 30.7245 98.013 31.9835 99.6741 31.9835C101.335 31.9835 102.323 30.7245 102.323 28.5664Z" fill="white"/>
<path d="M106.102 23.5864H108.057V25.2815H108.105C108.237 24.7521 108.548 24.2842 108.985 23.9566C109.423 23.6289 109.96 23.4614 110.507 23.4822C110.743 23.4814 110.979 23.507 111.209 23.5585V25.4706C110.911 25.3797 110.6 25.338 110.288 25.3471C109.99 25.335 109.693 25.3874 109.418 25.5005C109.142 25.6137 108.895 25.785 108.692 26.0027C108.489 26.2204 108.335 26.4793 108.242 26.7616C108.149 27.044 108.118 27.343 108.152 27.6384V33.5455H106.102L106.102 23.5864Z" fill="white"/>
<path d="M120.661 30.6203C120.385 32.4282 118.619 33.6689 116.36 33.6689C113.455 33.6689 111.652 31.7278 111.652 28.6137C111.652 25.4898 113.465 23.4639 116.274 23.4639C119.037 23.4639 120.775 25.3566 120.775 28.3763V29.0767H113.721V29.2002C113.689 29.5667 113.735 29.9359 113.856 30.2834C113.978 30.6308 114.172 30.9485 114.426 31.2153C114.68 31.4821 114.988 31.6919 115.33 31.8308C115.672 31.9698 116.039 32.0346 116.408 32.0211C116.892 32.0663 117.378 31.9545 117.794 31.7021C118.21 31.4497 118.532 31.0703 118.714 30.6203L120.661 30.6203ZM113.731 27.6479H118.724C118.742 27.3184 118.692 26.9886 118.577 26.6793C118.461 26.3699 118.283 26.0877 118.053 25.8504C117.823 25.6131 117.546 25.4257 117.24 25.3001C116.934 25.1744 116.605 25.1132 116.274 25.1203C115.94 25.1183 115.61 25.1823 115.301 25.3085C114.992 25.4347 114.711 25.6207 114.474 25.8557C114.238 26.0907 114.051 26.3701 113.923 26.6777C113.795 26.9853 113.73 27.315 113.731 27.6479Z" fill="white"/>
<path d="M41.7256 9.60413C42.1554 9.57337 42.5866 9.63812 42.9883 9.79369C43.3899 9.94927 43.752 10.1918 44.0482 10.5038C44.3445 10.8158 44.5676 11.1894 44.7016 11.5978C44.8355 12.0062 44.8768 12.4392 44.8226 12.8655C44.8226 14.9623 43.6862 16.1677 41.7256 16.1677H39.3481V9.60413H41.7256ZM40.3704 15.2394H41.6114C41.9185 15.2577 42.2258 15.2075 42.511 15.0924C42.7962 14.9774 43.0521 14.8003 43.26 14.5742C43.4679 14.3481 43.6227 14.0786 43.713 13.7853C43.8033 13.492 43.8269 13.1823 43.782 12.8788C43.8236 12.5765 43.7976 12.2688 43.706 11.9776C43.6143 11.6865 43.4591 11.4192 43.2517 11.1949C43.0442 10.9706 42.7896 10.7948 42.506 10.6801C42.2224 10.5654 41.9169 10.5148 41.6114 10.5317H40.3704V15.2394Z" fill="white"/>
<path d="M45.9774 13.6882C45.9462 13.3627 45.9835 13.0342 46.087 12.724C46.1905 12.4137 46.3579 12.1284 46.5785 11.8864C46.799 11.6445 47.0679 11.4511 47.3678 11.3188C47.6676 11.1865 47.9919 11.1182 48.3198 11.1182C48.6477 11.1182 48.972 11.1865 49.2719 11.3188C49.5718 11.4511 49.8406 11.6445 50.0612 11.8864C50.2817 12.1284 50.4491 12.4137 50.5527 12.724C50.6562 13.0342 50.6935 13.3627 50.6623 13.6882C50.6941 14.014 50.6572 14.3429 50.554 14.6537C50.4507 14.9645 50.2834 15.2503 50.0628 15.4927C49.8422 15.7352 49.5732 15.9289 49.273 16.0615C48.9728 16.1941 48.6481 16.2626 48.3198 16.2626C47.9915 16.2626 47.6669 16.1941 47.3667 16.0615C47.0665 15.9289 46.7975 15.7352 46.5769 15.4927C46.3562 15.2503 46.1889 14.9645 46.0857 14.6537C45.9825 14.3429 45.9456 14.014 45.9774 13.6882ZM49.654 13.6882C49.654 12.6145 49.1703 11.9866 48.3215 11.9866C47.4694 11.9866 46.99 12.6145 46.99 13.6882C46.99 14.7705 47.4694 15.3935 48.3215 15.3935C49.1703 15.3935 49.654 14.7662 49.654 13.6882Z" fill="white"/>
<path d="M56.8899 16.1671H55.873L54.8464 12.519H54.7688L53.7465 16.1671H52.7393L51.3701 11.2139H52.3644L53.2542 14.9935H53.3275L54.3487 11.2139H55.2891L56.3103 14.9935H56.3879L57.2734 11.2139H58.2536L56.8899 16.1671Z" fill="white"/>
<path d="M59.4053 11.2138H60.3489V12.0006H60.4222C60.5465 11.718 60.756 11.4811 61.0217 11.3229C61.2875 11.1647 61.596 11.0932 61.9045 11.1182C62.1461 11.1 62.3888 11.1364 62.6145 11.2245C62.8402 11.3126 63.0431 11.4502 63.2082 11.6271C63.3733 11.8041 63.4964 12.0158 63.5684 12.2466C63.6403 12.4774 63.6592 12.7214 63.6237 12.9604V16.1669H62.6434V13.2059C62.6434 12.4099 62.2966 12.0141 61.5716 12.0141C61.4075 12.0064 61.2437 12.0343 61.0914 12.0957C60.9391 12.1571 60.8019 12.2506 60.6893 12.3699C60.5766 12.4891 60.4912 12.6312 60.4387 12.7864C60.3863 12.9417 60.3682 13.1064 60.3856 13.2693V16.167H59.4053L59.4053 11.2138Z" fill="white"/>
<path d="M65.1855 9.28027H66.1658V16.1671H65.1855V9.28027Z" fill="white"/>
<path d="M67.5286 13.6883C67.4974 13.3627 67.5348 13.0343 67.6383 12.724C67.7419 12.4137 67.9093 12.1284 68.1299 11.8864C68.3505 11.6445 68.6193 11.4511 68.9192 11.3188C69.2191 11.1865 69.5434 11.1182 69.8714 11.1182C70.1993 11.1182 70.5236 11.1865 70.8235 11.3188C71.1234 11.4511 71.3922 11.6445 71.6128 11.8864C71.8334 12.1284 72.0008 12.4137 72.1044 12.724C72.2079 13.0343 72.2453 13.3627 72.2141 13.6883C72.2458 14.0141 72.2089 14.343 72.1056 14.6538C72.0024 14.9646 71.835 15.2504 71.6144 15.4928C71.3938 15.7353 71.1247 15.929 70.8245 16.0616C70.5243 16.1942 70.1997 16.2627 69.8714 16.2627C69.543 16.2627 69.2184 16.1942 68.9182 16.0616C68.618 15.929 68.3489 15.7353 68.1283 15.4928C67.9077 15.2504 67.7403 14.9646 67.6371 14.6538C67.5338 14.343 67.4969 14.0141 67.5286 13.6883ZM71.2052 13.6883C71.2052 12.6146 70.7215 11.9867 69.8727 11.9867C69.0206 11.9867 68.5413 12.6146 68.5413 13.6883C68.5413 14.7706 69.0206 15.3936 69.8727 15.3936C70.7216 15.3936 71.2052 14.7663 71.2052 13.6883Z" fill="white"/>
<path d="M73.2461 14.7662C73.2461 13.8746 73.9118 13.3606 75.0935 13.2875L76.439 13.2102V12.7827C76.439 12.2595 76.0921 11.9641 75.4221 11.9641C74.8749 11.9641 74.4957 12.1645 74.3869 12.5146H73.4378C73.538 11.6639 74.3406 11.1182 75.4674 11.1182C76.7126 11.1182 77.415 11.7364 77.415 12.7827V16.167H76.4713V15.4709H76.3938C76.2363 15.7206 76.0153 15.9241 75.7532 16.0608C75.491 16.1974 75.1973 16.2622 74.9018 16.2486C74.6933 16.2702 74.4825 16.248 74.2831 16.1835C74.0837 16.1189 73.9001 16.0134 73.7441 15.8737C73.5881 15.7341 73.4632 15.5633 73.3774 15.3726C73.2917 15.1818 73.2469 14.9753 73.2461 14.7662ZM76.439 14.343V13.9289L75.2261 14.0062C74.542 14.0518 74.2318 14.2839 74.2318 14.7205C74.2318 15.1663 74.6196 15.4258 75.1528 15.4258C75.3091 15.4415 75.4669 15.4258 75.6169 15.3795C75.767 15.3332 75.9061 15.2573 76.0261 15.1563C76.1461 15.0552 76.2445 14.9312 76.3154 14.7914C76.3864 14.6517 76.4284 14.4992 76.439 14.343Z" fill="white"/>
<path d="M78.7031 13.6883C78.7031 12.1232 79.51 11.1317 80.765 11.1317C81.0754 11.1174 81.3835 11.1916 81.6532 11.3455C81.9229 11.4994 82.1432 11.7266 82.2882 12.0007H82.3614V9.28027H83.3417V16.1671H82.4024V15.3845H82.3248C82.1686 15.6568 81.9407 15.8812 81.6657 16.0335C81.3908 16.1859 81.0793 16.2603 80.765 16.2487C79.5014 16.2488 78.7031 15.2572 78.7031 13.6883ZM79.7158 13.6883C79.7158 14.7389 80.2124 15.3711 81.0429 15.3711C81.8691 15.3711 82.3798 14.7298 82.3798 13.6926C82.3798 12.6603 81.8638 12.0099 81.0429 12.0099C80.2177 12.0099 79.7158 12.6464 79.7158 13.6883Z" fill="white"/>
<path d="M87.3978 13.6882C87.3666 13.3627 87.4039 13.0342 87.5074 12.724C87.6109 12.4137 87.7783 12.1284 87.9989 11.8864C88.2195 11.6445 88.4883 11.4511 88.7882 11.3188C89.088 11.1865 89.4123 11.1182 89.7402 11.1182C90.0682 11.1182 90.3925 11.1865 90.6923 11.3188C90.9922 11.4511 91.261 11.6445 91.4816 11.8864C91.7021 12.1284 91.8695 12.4137 91.9731 12.724C92.0766 13.0342 92.1139 13.3627 92.0827 13.6882C92.1145 14.014 92.0776 14.3429 91.9744 14.6537C91.8711 14.9645 91.7038 15.2503 91.4832 15.4927C91.2626 15.7352 90.9936 15.9289 90.6934 16.0615C90.3932 16.1941 90.0686 16.2626 89.7402 16.2626C89.4119 16.2626 89.0873 16.1941 88.7871 16.0615C88.4869 15.9289 88.2179 15.7352 87.9973 15.4927C87.7767 15.2503 87.6094 14.9645 87.5061 14.6537C87.4029 14.3429 87.366 14.014 87.3978 13.6882ZM91.0744 13.6882C91.0744 12.6145 90.5907 11.9866 89.7419 11.9866C88.8898 11.9866 88.4104 12.6145 88.4104 13.6882C88.4104 14.7705 88.8898 15.3935 89.7419 15.3935C90.5907 15.3935 91.0744 14.7662 91.0744 13.6882Z" fill="white"/>
<path d="M93.3979 11.2138H94.3416V12.0006H94.4149C94.5391 11.718 94.7487 11.4811 95.0144 11.3229C95.2801 11.1647 95.5887 11.0932 95.8971 11.1182C96.1388 11.1 96.3815 11.1364 96.6072 11.2245C96.8329 11.3126 97.0358 11.4502 97.2009 11.6271C97.366 11.8041 97.4891 12.0158 97.561 12.2466C97.633 12.4774 97.6519 12.7214 97.6164 12.9604V16.1669H96.6361V13.2059C96.6361 12.4099 96.2893 12.0141 95.5643 12.0141C95.4002 12.0064 95.2364 12.0343 95.0841 12.0957C94.9318 12.1571 94.7946 12.2506 94.682 12.3699C94.5693 12.4891 94.4838 12.6312 94.4314 12.7864C94.379 12.9417 94.3609 13.1064 94.3782 13.2693V16.167H93.3979V11.2138Z" fill="white"/>
<path d="M103.155 9.98047V11.2362H104.231V12.0596H103.155V14.6066C103.155 15.1254 103.37 15.3526 103.858 15.3526C103.982 15.3522 104.107 15.3447 104.231 15.3301V16.1443C104.055 16.1757 103.877 16.1924 103.698 16.1943C102.608 16.1943 102.174 15.8119 102.174 14.8569V12.0596H101.385V11.2362H102.174V9.98047H103.155Z" fill="white"/>
<path d="M105.571 9.28027H106.542V12.0099H106.62C106.75 11.7246 106.966 11.4864 107.237 11.3276C107.508 11.1688 107.821 11.0972 108.135 11.1226C108.375 11.1095 108.615 11.1495 108.838 11.2398C109.062 11.33 109.262 11.4683 109.425 11.6446C109.589 11.821 109.711 12.0312 109.784 12.2601C109.856 12.4891 109.877 12.7312 109.845 12.9691V16.1671H108.864V13.2103C108.864 12.4191 108.494 12.0184 107.802 12.0184C107.633 12.0047 107.464 12.0278 107.305 12.0861C107.147 12.1445 107.003 12.2367 106.884 12.3563C106.764 12.4759 106.673 12.62 106.616 12.7786C106.558 12.9371 106.536 13.1063 106.551 13.2742V16.1671H105.571L105.571 9.28027Z" fill="white"/>
<path d="M115.561 14.8297C115.428 15.2824 115.139 15.6739 114.746 15.9359C114.352 16.1979 113.879 16.3135 113.408 16.2627C113.081 16.2713 112.756 16.2088 112.455 16.0795C112.155 15.9502 111.886 15.7573 111.668 15.514C111.449 15.2708 111.287 14.983 111.191 14.6708C111.096 14.3586 111.069 14.0294 111.114 13.706C111.07 13.3817 111.097 13.0517 111.193 12.7386C111.288 12.4255 111.45 12.1364 111.667 11.891C111.884 11.6457 112.152 11.4497 112.451 11.3163C112.751 11.183 113.076 11.1155 113.404 11.1182C114.786 11.1182 115.62 12.0598 115.62 13.6152V13.9563H112.113V14.0111C112.097 14.1929 112.12 14.3759 112.18 14.5483C112.24 14.7207 112.335 14.8788 112.459 15.0124C112.584 15.146 112.735 15.2522 112.903 15.3241C113.071 15.396 113.252 15.4322 113.435 15.4301C113.67 15.4582 113.907 15.4161 114.118 15.3092C114.328 15.2022 114.502 15.0353 114.617 14.8296L115.561 14.8297ZM112.113 13.2334H114.621C114.634 13.0671 114.611 12.9002 114.555 12.7432C114.499 12.5862 114.41 12.4427 114.295 12.3218C114.18 12.201 114.041 12.1055 113.886 12.0415C113.732 11.9775 113.566 11.9464 113.399 11.9502C113.229 11.9481 113.061 11.9799 112.904 12.0436C112.747 12.1073 112.604 12.2018 112.484 12.3214C112.364 12.4409 112.27 12.5832 112.206 12.7399C112.142 12.8965 112.11 13.0643 112.113 13.2334Z" fill="white"/>
</svg>
